<svg width="32" height="32" viewBox="0 0 32 32" fill="none" xmlns="http://www.w3.org/2000/svg">
<path d="M28 6.66669H4.00002C3.6464 6.66669 3.30726 6.80716 3.05721 7.05721C2.80716 7.30726 2.66669 7.6464 2.66669 8.00002V13.3334H3.85735C5.18535 13.3334 6.41735 14.2414 6.63069 15.552C6.69568 15.9347 6.67637 16.327 6.57411 16.7015C6.47185 17.076 6.2891 17.4237 6.03861 17.7202C5.78813 18.0168 5.47594 18.2551 5.12384 18.4186C4.77175 18.5821 4.38822 18.6667 4.00002 18.6667H2.66669V24C2.66669 24.3536 2.80716 24.6928 3.05721 24.9428C3.30726 25.1929 3.6464 25.3334 4.00002 25.3334H28C28.3536 25.3334 28.6928 25.1929 28.9428 24.9428C29.1929 24.6928 29.3334 24.3536 29.3334 24V18.6667H28C27.6118 18.6667 27.2283 18.5821 26.8762 18.4186C26.5241 18.2551 26.2119 18.0168 25.9614 17.7202C25.7109 17.4237 25.5282 17.076 25.4259 16.7015C25.3237 16.327 25.3044 15.9347 25.3694 15.552C25.5827 14.2414 26.8147 13.3334 28.1427 13.3334H29.3334V8.00002C29.3334 7.6464 29.1929 7.30726 28.9428 7.05721C28.6928 6.80716 28.3536 6.66669 28 6.66669ZM12 12C12.3536 12 12.6928 12.1405 12.9428 12.3905C13.1929 12.6406 13.3334 12.9797 13.3334 13.3334C13.3334 13.687 13.1929 14.0261 12.9428 14.2762C12.6928 14.5262 12.3536 14.6667 12 14.6667C11.6464 14.6667 11.3073 14.5262 11.0572 14.2762C10.8072 14.0261 10.6667 13.687 10.6667 13.3334C10.6667 12.9797 10.8072 12.6406 11.0572 12.3905C11.3073 12.1405 11.6464 12 12 12ZM10.9334 20.5334L18.9334 9.86669L21.0667 11.4667L13.0667 22.1334L10.9334 20.5334ZM20 20C19.6464 20 19.3073 19.8595 19.0572 19.6095C18.8072 19.3594 18.6667 19.0203 18.6667 18.6667C18.6667 18.3131 18.8072 17.9739 19.0572 17.7239C19.3073 17.4738 19.6464 17.3334 20 17.3334C20.3536 17.3334 20.6928 17.4738 20.9428 17.7239C21.1929 17.9739 21.3334 18.3131 21.3334 18.6667C21.3334 19.0203 21.1929 19.3594 20.9428 19.6095C20.6928 19.8595 20.3536 20 20 20Z" fill="white"/>
</svg>
