<svg width="32" height="32" viewBox="0 0 32 32" fill="none" xmlns="http://www.w3.org/2000/svg">
<path d="M3.99998 17.3338H5.33331V26.6671C5.33331 28.1378 6.52931 29.3338 7.99998 29.3338H24C25.4706 29.3338 26.6666 28.1378 26.6666 26.6671V17.3338H28C28.2636 17.3338 28.5214 17.2555 28.7406 17.109C28.9598 16.9625 29.1307 16.7543 29.2315 16.5107C29.3324 16.2671 29.3588 15.999 29.3074 15.7404C29.256 15.4818 29.1291 15.2443 28.9426 15.0578L16.9426 3.0578C16.8189 2.93388 16.672 2.83556 16.5102 2.76848C16.3485 2.7014 16.1751 2.66687 16 2.66687C15.8249 2.66687 15.6515 2.7014 15.4897 2.76848C15.328 2.83556 15.181 2.93388 15.0573 3.0578L3.05731 15.0578C2.8709 15.2443 2.74396 15.4818 2.69254 15.7404C2.64111 15.999 2.66752 16.2671 2.76841 16.5107C2.8693 16.7543 3.04016 16.9625 3.25937 17.109C3.47858 17.2555 3.73631 17.3338 3.99998 17.3338ZM13.3333 26.6671V20.0005H18.6666V26.6671H13.3333ZM16 5.88581L24 13.8858V20.0005L24.0013 26.6671H21.3333V20.0005C21.3333 18.5298 20.1373 17.3338 18.6666 17.3338H13.3333C11.8626 17.3338 10.6666 18.5298 10.6666 20.0005V26.6671H7.99998V13.8858L16 5.88581Z" fill="white"/>
</svg>
