<svg width="32" height="32" viewBox="0 0 32 32" fill="none" xmlns="http://www.w3.org/2000/svg">
<path d="M26.6667 9.33335H25.0547C25.2502 8.68507 25.3442 8.01041 25.3334 7.33335C25.3334 4.76002 23.24 2.66669 20.6667 2.66669C18.504 2.66669 17.06 4.64269 16.128 6.78002C15.2094 4.76002 13.692 2.66669 11.3334 2.66669C8.76002 2.66669 6.66669 4.76002 6.66669 7.33335C6.66669 8.12802 6.77202 8.78535 6.94535 9.33335H5.33335C3.86269 9.33335 2.66669 10.5294 2.66669 12V14.6667C2.66669 16.1374 3.86269 17.3334 5.33335 17.3334V26.6667C5.33335 28.1374 6.52935 29.3334 8.00002 29.3334H24C25.4707 29.3334 26.6667 28.1374 26.6667 26.6667V17.3334C28.1374 17.3334 29.3334 16.1374 29.3334 14.6667V12C29.3334 10.5294 28.1374 9.33335 26.6667 9.33335ZM20.6667 5.33335C21.7694 5.33335 22.6667 6.23069 22.6667 7.33335C22.6667 9.33335 21.832 9.33335 21.3334 9.33335H18.0294C18.7107 7.23202 19.7 5.33335 20.6667 5.33335ZM9.33335 7.33335C9.33335 6.23069 10.2307 5.33335 11.3334 5.33335C12.5174 5.33335 13.6187 7.36669 14.264 9.33335H10.6667C10.168 9.33335 9.33335 9.33335 9.33335 7.33335ZM5.33335 12H14.6667V14.6667H5.33335V12ZM8.00002 26.6667V17.3334H14.6667V26.6667H8.00002ZM24 26.6667H17.3334V17.3334H24V26.6667ZM17.3334 14.6667V12.1134L17.356 12H26.6667L26.668 14.6667H17.3334Z" fill="white"/>
</svg>
